<svg height="46" viewBox="0 0 120 46" width="120" xmlns="http://www.w3.org/2000/svg"><g fill="none" fill-rule="evenodd"><g fill="#fff"><path d="m22.162847 0h.6772953c5.4217794.07003559 10.7940214 2.17879004 14.7911744 5.84626335 1.0573666.9360854 1.9985765 1.99857651 2.8526691 3.12170818 2.0455516 2.71003557 3.461637 5.89067617 4.1090391 9.22334517.7370819 3.7537367.4953737 7.6953737-.7037722 11.3278292-.7968684 2.4444128-2.0250534 4.7453381-3.5974378 6.7789324-1.7252669 2.2240569-3.8698932 4.1192882-6.2912455 5.5558719-3.3574377 2.0019929-7.2444128 3.0969395-11.1518861 3.156726h-.6807118c-3.6606405-.0563702-7.3059074-1.0163702-10.5113167-2.7877581-2.85266903-1.5655516-5.35601423-3.7597153-7.28113879-6.3826334-2.76213523-3.7375089-4.31060498-8.3496085-4.37551601-12.9958719v-.6798576c.03928826-2.2496798.40654804-4.495089 1.1086121-6.6337367 1.60911032-4.9930249 5.03743772-9.36854092 9.498363-12.12896797 3.4479715-2.15572953 7.4903914-3.34120996 11.5558719-3.40185053zm-2.3581495 5.32782918c-3.3557295.50818505-6.5491815 2.02505338-9.0670463 4.30120997-1.71843412 1.54334515-3.12085405 3.43772245-4.10562273 5.52597865-1.48185053 3.1148754-2.00199288 6.673879-1.48355872 10.0834164.47914591 3.2156583 1.87900356 6.2878291 3.99288256 8.7570106 2.67074729 3.1575801 6.50476869 5.2987901 10.59074729 5.9325267 3.692242.5910321 7.5681139-.046121 10.8743061-1.7953025 3.0815658-1.6082562 5.6558007-4.1628469 7.2896797-7.2316014 1.7637011-3.2643416 2.4247687-7.0949466 1.9029182-10.7658363-5.8761566 5.8325979-11.7377936 11.6797153-17.612242 17.5140214-.4458363.4552313-1.1666904.572242-1.7500356.3433452-.3706762-.1426335-.6337367-.4501068-.9079004-.7225623-3.6111032-3.5948755-7.2256228-7.1863345-10.83587186-10.7820641-.6175089-.5756583-.66448399-1.6381494-.08626335-2.2573665.53209965-.5483274 1.08128114-1.0812812 1.62277581-1.6210676.4663345-.4688968 1.2222064-.6046975 1.8243416-.3348043.3869039.157153.6439858.4996441.94121.7763701 2.6886833 2.6758719 5.3782206 5.3500356 8.0660498 8.0267616 5.3671175-5.3466192 10.7402135-10.6872598 16.107331-16.0330249.2203558-.2425623.4953736-.4287545.802847-.544057-1.7338079-3.313879-4.5531673-6.0435587-7.9311033-7.65096084-3.1550177-1.52455516-6.7738078-2.06007117-10.2354448-1.52199288z"/><path d="m22.7513167 9.18405694c.5457652-.23572954 1.2546619.03843416 1.4382918.61921708.1511744.51928828.1298221 1.16071178-.2579359 1.57665478-.4953737.5090392-1.4878292.3433452-1.7406406-.3390747-.2434163-.6311744-.1366548-1.5664057.5602847-1.85679716zm.267331.43302491c-.2451246.09651246-.2878292.39459075-.3151602.62348755-.0128113.2895374-.0196441.627758.1913168.8558007.2101067.2024199.5867615.092242.6704626-.1827758.1204271-.3424911.138363-.7370818.0008541-1.07701067-.0819929-.2169395-.3407829-.29380783-.5474733-.21950178z"/><path d="m24.8130961 9.17295374c.2229181.03587188.4458363.07003558.6670462.11786477.0401424.62861209.1016371 1.25722419.1264057 1.88754449.2690392-.5688256.5637011-1.1239858.8353025-1.69110321.2237723.04355872.4466904.08882562.6704627.13323843-.4270463.76953738-.8754449 1.52711748-1.3127402 2.29067618-.2195018-.0418506-.4390036-.0854093-.6559431-.1400712-.1076157-.8660498-.2075445-1.7338078-.3305338-2.59814946z"/><path d="m19.8841281 9.46932384c.3501779-.18960854.8207829-.24256227 1.1760854-.04014235.1964413.11957296.2963701.33395018.3851958.53637011-.1887545.0512456-.3809253.0896797-.5748043.1144484-.0691815-.11701068-.1580071-.21950178-.2613523-.30747331-.2049822-.00170818-.4304627.03672598-.535516.23572951-.0982207.2639146-.0409965.5508897.0196441.8165125.0520996.2092527.1392171.4381494.3484697.5363701.2032741.0802847.4091104-.0256228.599573-.0905338-.0136655-.1409253-.0307473-.2809965-.055516-.4202135-.1426335.0204982-.2852669.0435587-.4279004.0657651-.0213523-.138363-.0435587-.2758719-.064911-.4133808.3330961-.0657651.6670462-.1306762 1.0001423-.193879.0725979.3433452.1392171.6883986.1998577 1.034306-.3467616.4074022-.9215659.6046976-1.4451246.497936-.4774377-.119573-.7396441-.6072598-.7994306-1.0633452-.1161566-.4680427-.0119573-1.05138791.4355872-1.30846976z"/><path d="m28.310605 10.0680427c.2152313.0614947.415089.165694.6149466.2664769-.1187189.6106761-.2169395 1.2264768-.3441993 1.8354448.4116726-.4671886.8190747-.9386477 1.2239146-1.4118149.2083986.0948042.4159431.193879.6209253.2972242-.6166548.6311743-1.2264769 1.2683274-1.8499644 1.8935231-.1990036-.0990747-.3980072-.1981495-.5961566-.2989324.1229893-.8592171.2152313-1.7218505.3305338-2.5819217z"/><path d="m76.7274021 10.1133096c.4048399-.0025623.8096798-.0008541 1.2153737-.0008541.036726.230605.073452.5227046.3202847.6260498.3348043.138363.729395.1323844 1.0650534-.0008541.2511032-.0973665.295516-.3903202.3313879-.6251957.4039857-.0008541.8079715-.0017082 1.2128114.0008541.0316014.7046263-.3954449 1.4220641-1.0906762 1.6236299-.6627758.193879-1.4015658.1998577-2.0566548-.0247687-.6567971-.230605-.9924555-.9377936-.9975801-1.5988612z"/><path d="m112.007402 10.1654093c.670463-.0034164 1.341779-.0017082 2.01395 0-.63032.5696797-1.255516 1.1444839-1.884128 1.7150177-.46121.0008541-.921566.0017082-1.381067-.000854.412526-.5739502.834448-1.1419218 1.251245-1.7141637z"/><path d="m15.8818505 10.9964413c.5295374-.230605 1.033452-.5133096 1.5561566-.7575801.0708897.1417794.1426335.2844128.2152313.4261922-.3296797.1716726-.6679003.3245551-1.0027046.4851245.0632029.1588612.1281139.3168684.2092527.4680427.2852669-.1400711.5730961-.2733096.8575089-.4142348.0666192.1349466.1332384.2707473.1998576.4056939-.2809964.1409253-.562847.2809965-.8438434.4227758.0854093.1725267.1708185.3441993.2562278.516726.3330961-.1622776.6610676-.3339502.9992882-.4834164.0700356.1409253.1392171.2818506.2092527.4227758-.5133096.2587901-1.0325979.5022064-1.5467616.756726-.3775089-.7456228-.7413523-1.4980783-1.1094662-2.2488256z"/><path d="m58.5403559 11.2782918c.203274-.5004982.6140925-.9343772 1.1624199-1.0317438.5782206-.1674021 1.144484.0871175 1.6723132.2997865.424484.1767972.9796441.0700356 1.1931672-.3715302.3262634.1955872.6533808.3886121.9813523.5799288-.203274.516726-.6380071.9540213-1.2017081 1.0445552-.5525979.1434875-1.0932385-.0871175-1.5937367-.2963702-.4279004-.1896085-1.015516-.1041992-1.2264769.3578648-.3296797-.193879-.6585053-.387758-.9873309-.5824911z"/><path d="m14.6989324 11.7898932c.1614235-.1229893.3262633-.2425622.4919573-.3595729.4936655.6670462.996726 1.3272598 1.4878292 1.9960142-.1614235.1212812-.322847.2425623-.4842705.3638434-.5372242-.2408541-1.079573-.4723131-1.6167972-.7123131.3143061.4048398.618363.8182206.9198577 1.2333096-.1648399.1187188-.3262633.2408541-.4859787.3655516-.5013523-.6661922-.9941637-1.3392171-1.4946619-2.0054093.1622776-.1187188.3237011-.2391459.4834164-.3621352.5423488.2391459 1.0898221.4654804 1.6270463.7182918-.3160143-.4082562-.6149467-.8284697-.9283986-1.2375801z"/><path d="m31.0146619 11.4414235c.1674022.1178648.3305338.2408541.4919573.3672598-.0708897.5859074-.1511744 1.1701067-.2203559 1.7551601.294662-.4202135.6106762-.8267615.9207118-1.236726.1588612.1238435.3211388.2434164.4859786.3604271-.49879.6687544-1.0009964 1.3358007-1.5014946 2.0037011-.1691103-.1212812-.3348043-.2468328-.4911032-.3834876.1024911-.5790747.1400711-1.1666904.24-1.7457651-.3049111.4193594-.6226335.8284697-.9283986 1.246121-.1648399-.1212812-.3271174-.2459787-.4868327-.3732385.4928113-.6670462.9967259-1.3255516 1.4895373-1.9934519z"/><path d="m26.6758719 11.6549466c.1861922-.0469751.4082562.0495374.4483986.2502491.0316014.2357296-.2716015.4449822-.4723132.294662-.249395-.0725979-.2263345-.4945196.0239146-.5449111z"/><path d="m18.996726 11.7429181c.2280427-.0623487.4603559.2434164.3074733.4390036-.119573.1990036-.4774377.2459787-.5748043.0017082-.1041993-.1981495.0674733-.4108185.267331-.4407118z"/><path d="m59.5618505 12.3313879c.9898933.0025623 1.9806406.0008541 2.9713879.0008541.6832741 3.6239146 1.3793595 7.2452669 2.0566548 10.8700356-.683274.0008541-1.366548-.0008541-2.0489679.0008541-.1272598-.6533808-.2340214-1.310178-.3544484-1.9644128-.8233452-.0008541-1.6458363-.0008541-2.4683274 0-.1229894.6508185-.2041281 1.3221352-.3664057 1.9584341-.618363.0136655-1.2375801.0025623-1.8559431.0034164.6926691-3.6222064 1.3699644-7.2469751 2.0660498-10.8691815zm.4219217 7.3486121c.6405694-.0034164 1.2811388-.0042705 1.9217082 0-.314306-1.8115302-.6491103-3.6204982-.9608541-5.4320285-.3117437 1.8115303-.6456939 3.6204983-.9608541 5.4320285z"/><path d="m91.4083986 13.4263345c.4261921-.692669 1.2384341-1.0300356 2.021637-1.1034875.7592882-.0563701 1.5561566-.0444128 2.261637.27758.5525979.2442705.9941637.7251246 1.1854804 1.2990748.2417082.6977936.1639858 1.4485409.1776513 2.1736655-.6448399.0017081-1.2888257.0017081-1.9319573 0-.0145196-.5047687.0298932-1.0138079-.0341637-1.5160143-.1571531-1.0103914-2.002847-.9437722-2.0276157.1110321-.0341637 1.9131672-.0034164 3.8280427-.0153736 5.7412099.0076868.3168683-.0290392.6585054.1306761.9471886.1340925.2451246.4176513.3646975.6841281.3971531.3484698.0418505.7439146.0017081 1.0129538-.2476869.2186476-.2177936.2425622-.5457651.2468327-.8361566.0042705-.6525267-.0008541-1.3041992.0025623-1.9558718-.3049111 0-.608968 0-.9121708-.0008541-.0017082-.5150178-.0008541-1.0308897-.0008541-1.5459075.9480427 0 1.8969395-.0008541 2.8449822.0008541-.0034164 1.1658363.0076868 2.3316726-.0051246 3.498363-.009395.702064-.2101067 1.4459786-.7430605 1.9345195-.6251957.5884698-1.5288256.7362278-2.3564413.7165837-.8139501.0034163-1.7004982-.1827758-2.280427-.7960143-.5013523-.508185-.6610676-1.2486832-.664484-1.9404982-.0017082-1.5356583 0-3.0721708-.0008541-4.6086833.0059787-.8558007-.0811388-1.7901779.4039858-2.5460498z"/><path d="m50.5153025 12.3851957c1.1530249 0 2.3069039-.0042704 3.4607829.0017082.7806406.0187901 1.6296086.2160854 2.1685409.8224911.4654805.5158719.5978648 1.2358719.6012812 1.9097509.0034163 1.7645552.0008541 3.5282562.0017082 5.2919573.0025622.70121-.1170107 1.4562278-.6021353 1.9951601-.5389324.6064057-1.3879003.8037011-2.1676868.8224911-1.1547331.0059787-2.3086121.0017082-3.4624911.0017082.0008541-1.5621352-.0008541-3.1251245.0008541-4.6872598-.2203559 0-.4407118 0-.6602135-.000854-.0017082-.4577936-.0008541-.9164413-.0008541-1.3742349.2195017-.0008541.4398576-.0008541.6602135-.0017082 0-1.5937367.0008541-3.1874733 0-4.78121zm2.0464057 1.5459075c.0025623 1.0787189.0008541 2.1565836.0008541 3.2353025.4133808.0017082.8276156 0 1.2418505.0008541-.0008541.4586477 0 .9164413-.0008541 1.375089-.4142349.0017081-.8284697 0-1.2418505.000854.0025623 1.0496798.0008541 2.1002136.0008541 3.1498933.5303914-.0196441 1.0761566.0606406 1.5954448-.082847.3664057-.1093238.5517438-.4979359.5397865-.8600712.0051245-1.9601423.0042705-3.9211388 0-5.8821352.0179359-.3826334-.1981495-.7866192-.5901779-.8797153-.507331-.1101779-1.0317438-.036726-1.5459075-.0572242z"/><path d="m68.3658363 12.3851957c1.1564413 0 2.3128826-.0042704 3.4693238.0017082.7772242.0196441 1.6227758.2177936 2.16.821637.4654805.5175801.5978648 1.2384342.6021353 1.9140214.0025623 1.5066192 0 3.0140925.0008541 4.5215658-.0051246.5662634.0290391 1.1385054-.0845552 1.6962278-.1135943.5483274-.4125267 1.071032-.8822776 1.3887544-.5987188.4091103-1.3469039.5047687-2.0549466.507331-1.0701779.009395-2.1403559.0034164-3.2096797.0025623-.0008541-1.5655516-.0008541-3.1302492 0-4.6958008-.22121 0-.4407118 0-.6602135-.000854-.0017082-.4586477-.0017082-.9164413-.0008541-1.3742349.2195018-.0008541.4398576-.0008541.6602135-.0017082 0-1.5937367.0008541-3.1874733 0-4.78121zm2.0464057 1.5459075c.0017082 1.0787189.0008541 2.1565836.0008541 3.2353025.4133808.0017082.8276156 0 1.2418505.0008541-.0008541.4586477 0 .9164413-.0008541 1.375089-.4142348.0017081-.8284697 0-1.2418505.000854.0017082 1.0496798.0008541 2.1002136.0008541 3.1498933.5320996-.0196441 1.0795729.0623487 1.5997153-.0845552.3646975-.1101779.5474733-.49879.535516-.8592171.0051246-1.9618505.0051246-3.923701 0-5.8846975.0170819-.3834875-.2015658-.7866192-.5944484-.877153-.5064769-.1084697-1.0291815-.0358719-1.541637-.0563701z"/><path d="m77.3235587 12.3843416c.9916014.0008541 1.984057-.0008541 2.9773666.0008541.6781494 3.6187901 1.375943 7.2350178 2.049822 10.854662-.6824199.0017081-1.3656939.000854-2.0481138 0-.1255516-.6525267-.2348755-1.3084698-.3527403-1.9627047-.8224911 0-1.6449822-.0034163-2.4666192.0008541-.1084697.655089-.2314591 1.3076157-.3441993 1.9627046-.6260498-.000854-1.2512455.0017082-1.8772953-.0017081.6901067-3.617936 1.3708185-7.2375801 2.0617793-10.854662zm.4261922 7.3451958h1.9251245c-.3185765-1.8123844-.6508185-3.6222064-.9642704-5.4354449-.313452 1.8132385-.6474022 3.6222064-.9608541 5.4354449z"/><path d="m83.2979359 12.3851957c.8515303-.0017082 1.7030605-.0008541 2.5545908-.0008541.6824199 2.14121 1.3656939 4.2832741 2.0532384 6.4227758.0008541-2.1403558 0-4.2815658 0-6.4219217.6064057-.0008541 1.2136655-.0017082 1.8209253 0 0 3.5026335-.0025623 7.0052669.0017082 10.5079004-.0162278.1101779.0298932.2451245-.0281851.3424911-.6892526.0128114-1.3793594.0017082-2.067758.0042705-.8353025-2.6083986-1.6748754-5.2159431-2.5024911-7.826904.0068328 2.6083986.0017082 5.2176513.0025623 7.826904-.6115303.0017081-1.2230605.000854-1.8337367 0-.0008541-3.617936 0-7.236726-.0008541-10.854662z"/><path d="m101.248399 12.3851957c.68242-.0017082 1.364839-.0008541 2.047259-.0008541-.001708 1.5664057.004271 3.1319573-.003416 4.6975089.860925-1.5723843 1.747473-3.1302491 2.618648-4.6966548.680711-.0008541 1.362277-.0017082 2.044697 0-.936085 1.6091103-1.867046 3.221637-2.807402 4.8290392.930961 2.0105338 1.876441 4.0150889 2.809964 6.0247687-.699501.0025622-1.398149.0025622-2.095943.0008541-.654234-1.4382919-1.308469-2.8757296-1.958434-4.3157296-.190462.332242-.422776.6397153-.599573.977936-.020498 1.1120284-.001708 2.224911-.008541 3.3377936-.68242.000854-1.364839.0025622-2.047259-.0008541 0-3.617936.000854-7.2358719 0-10.8538079z"/><path d="m108.191317 12.3869039c.709751-.0042704 1.419502-.0025623 2.129252-.0017082.512456 1.6390036 1.029182 3.2754449 1.533096 4.9170107.508186-1.6398576 1.023203-3.277153 1.531388-4.9170107.649965-.0017082 1.299929-.0008541 1.949894-.0008541-.838719 2.3965837-1.690249 4.7880427-2.524698 7.1854805-.055516 1.2196441-.007687 2.4469751-.023914 3.6691815-.68242.0034163-1.363986.0017081-2.046406.0008541-.000854-1.1419218-.001708-2.2838435.001708-3.4257652.011957-.2365836-.100783-.4518149-.172527-.6696085-.791743-2.2530961-1.587758-4.504484-2.377793-6.7575801z"/><path d="m12.5389324 13.6176512c.1392171-.1409252.2792882-.2801423.4193594-.4193594.5918861.5893239 1.1820641 1.1803559 1.772242 1.772242-.1392171.1392171-.2775801.2784342-.4159431.4185053-.6055516-.5765124-1.1923131-1.172669-1.7756583-1.7713879z"/><path d="m11.0903915 15.3096085c.1246975-.1597153.2502491-.3185765.3758007-.4774377.5295373.4167972 1.0624911.8293239 1.5886121 1.2503915.222064-.2656228.4287544-.5423488.6431316-.812242.1306762.0905338.2587901.184484.3843417.2818505-.3441993.4321708-.683274.8694662-1.0249111 1.3041993-.6567971-.5141637-1.3195729-1.0206406-1.966975-1.5467616z"/><path d="m10.5898932 16.0424199c.7387901.3843417 1.4733096.7780783 2.2138079 1.1607118-.0879716.1819217-.1767972.3638434-.2750178.5397864-.5953025.0017082-1.1880427.0649111-1.7833452.0503915.4577936.2434164.9172954.4825623 1.3767971.7217082-.0948042.1793594-.1887544.3595729-.2852669.5380783-.7456227-.3715303-1.4733096-.7763701-2.21295371-1.1590036.09053381-.1802135.18448399-.3578647.28014235-.5346619.58761566-.0076868 1.17437726-.0623487 1.76199286-.0529537-.4466904-.249395-.9010676-.4859787-1.3545907-.7217082.0965124-.1793594.1887544-.3604271.2784341-.5423488z"/><path d="m9.7716726 18.9181495c.5107473-.0862634 1.0735943.0828469 1.4519573.4372953.5602847.5372242.2314591 1.6227758-.5286833 1.7671175-.5380783.0913879-1.14704624-.0837011-1.51857649-.4919573-.4919573-.5637011-.14604983-1.5792171.59530249-1.7124555zm-.07772242.6123843c-.2972242.1161566-.34932385.5756584-.06747331.7404982.3083274.1853381.68669043.3091815 1.04882563.2647687.341637-.0324555.4663345-.5406406.1802135-.7302491-.322847-.2434164-.7644128-.3535943-1.16156582-.2750178z"/><path d="m50.6476868 25.4519573h64.0569392c-.000854.1990036-.000854.3980071 0 .5978648h-64.0569392c-.0008541-.1998577-.0008541-.3988612 0-.5978648z"/><path d="m57.1498932 27.1644128c.1375089-.0025623.276726-.0051245.4167972-.0076868.3211388.3544484.6405694.7114591.9557295 1.0718861-.2041281-.0051246-.4167971.0350178-.6158007-.0136655-.1904626-.193879-.3578648-.4082562-.544911-.6046975-.1802135.2041281-.3587189.4099644-.5312456.6192171-.2083985.0042705-.415943.0051245-.6226334.0034164.2980783-.3698221.6388612-.7029182.942064-1.0684698z"/><path d="m69.1917438 27.1644128c.138363-.0025623.27758-.0051245.4176512-.0076868.3211388.3553025.6414235.7114591.9557296 1.0727402-.1998577.0034164-.3997153.0051245-.5987189.0076868-.1879004-.2092526-.3740925-.4193594-.5619929-.6269039-.1793594.2041281-.3578648.4091103-.5303914.6192171-.2083986.0042705-.4159431.0059786-.6234876.0034164.2980783-.3698221.6388612-.7020641.94121-1.0684698z"/><path d="m104.2121 28.1346619c.207544.0008541.415943.0008541.625195.0034164-.024768.3698221-.070035.7644128-.308327 1.0659075-.158007.2229181-.417651.332242-.6679.4150889.179359.3484698.29637.7302491.328825 1.1222776.024769.8421352.083701 1.7585765-.403986 2.4948043-.665338 1.1470462-2.502491 1.2350178-3.318149.2118149-.544911-.6491103-.637153-1.5365124-.5961566-2.3513167.0059787-.7720996.2562276-1.5937367.8728826-2.0959431.797722-.6508185 2.063488-.5688256 2.791174.1537367.16057-.0538078.339075-.0982206.451815-.2374377.192171-.2126691.187901-.5158719.224627-.7823488zm-2.627189 1.1291103c-.655943.2186477-.937794.9395018-.983915 1.5749467-.01879.7174377-.071743 1.5014946.349324 2.1275444.443274.7251246 1.637296.7720997 2.14121.0896798.351032-.4586477.412527-1.0624911.393737-1.6219217.016228-.5927403-.007687-1.236726-.374947-1.7329538-.327971-.4757295-.99758-.6209253-1.525409-.4372954z"/><path d="m99.4274733 28.3225623c.1904626.0008541.3809253.0008541.5730957.0017082.008541.4595017-.068327.9753736-.4279 1.2982206-.2553736.2348754-.6089679.2989324-.942064.3313879-.0008541.8071174 0 1.615089 0 2.4230605.0025623.4637722-.1699644.9386477-.516726 1.2546619-.3937367.3937367-.9719573.544057-1.5160142.5184342-.6123844.0128114-1.264057-.2459787-1.6014235-.7763701-.2135232-.3202847-.2818506-.710605-.2775801-1.088968 0-1.21879-.0008541-2.4375801.0008541-3.655516h.7140214c.0025622 1.2512455-.0042705 2.5024911.0025622 3.7528826-.0059786.4048398.1793595.8353024.5508897 1.0291815.4441281.2143772.9992883.2101067 1.430605-.0350178.3732384-.2246264.4970818-.6883986.4928114-1.098363.0102491-1.2162278.0042704-2.4333096.0025623-3.6495374.2382918.0008541.4774377.0008541.7165836.0017082.0008541.268185 0 .5363701 0 .8045551.2075445-.0358718.4304626-.093096.5713879-.2647686.1990035-.2340214.1827758-.5611388.2263345-.8472598z"/><path d="m50.6656228 28.6300356c.6525267.0051245 1.3050534-.0145196 1.95758.0119573.4381495.0162277.9036299.1246975 1.227331.4398576.3100356.3194306.3920285.7960143.3399288 1.2247687-.0734519.4159431-.3937366.7490392-.7746619.9096086.2331673.0862633.470605.1972953.6286121.397153.4364413.5389324.3980071 1.3776512-.0264769 1.9114591-.3177224.3843416-.8335943.5406405-1.3170106.5508896-.6790036.0059787-1.3580072.0008541-2.0361566.0017082.0008541-1.8158007-.0008541-3.6316014.0008541-5.4474021zm.7328114.6123843c.0017081.5705338 0 1.1410676.0008541 1.7116015.5423487-.0427047 1.126548.1101779 1.6372953-.1255516.5893239-.2587901.6132385-1.273452-.0111032-1.4980783-.5252669-.1631317-1.0872598-.0606406-1.6270462-.0879716zm0 2.3060499c.0017081.6499644 0 1.2990747.0008541 1.9490391.5679715-.0333096 1.1666903.0913879 1.7107473-.1212811.4509608-.1819218.5944484-.7370819.4774377-1.1735232-.0597865-.3758007-.4321708-.6303203-.7968683-.646548-.4637723-.0204982-.9283986-.0034164-1.3921708-.0076868z"/><path d="m56.6716014 28.6633452c.6559431-.2075445 1.42121-.1084698 1.9695374.3194306.7541637.5935943.9283986 1.6261922.8728826 2.5323843.028185.7140214-.1588613 1.4622064-.6320285 2.0113879-.8148043.8993595-2.455516.8361566-3.1703915-.1580071-.5688256-.748185-.5773665-1.7423487-.508185-2.6382918.0734519-.8805694.5876156-1.7876156 1.468185-2.0669039zm.3177224.5713879c-.4330249.1093238-.7712455.4637722-.9155871.8788612-.1887545.4415658-.1733808.9275445-.1682563 1.3981495-.0204982.5295373.0811388 1.0864057.3997153 1.5219929.4911032.6858363 1.6834164.6772953 2.1429182-.0401424.3288256-.48.3664057-1.0864057.351032-1.6501068.017936-.5577224-.0341637-1.1581494-.3698221-1.625338-.3057651-.4569395-.9249822-.6226335-1.44-.4834164z"/><path d="m63.1020641 29.0186477c.6362989-.5312456 1.5928825-.5944484 2.3291103-.2434164.6149466.2895374.9446263.9617082 1.0052669 1.6142349-.2417082-.0017082-.4825623-.0017082-.7234164.0008541-.064911-.3433452-.1580071-.7123132-.4253381-.9557296-.5064768-.3997153-1.3084697-.3544484-1.7773665.0845552-.3629893.3664057-.4851246.8993594-.5116014 1.3981495-.0051246.6209252-.0538079 1.2734519.2101067 1.8550889.165694.3809253.5064769.7037723.9266904.7695374.3997153.064911.8523844.0025623 1.1701068-.2664769.2716014-.2357295.3365124-.6064057.4099644-.9395017.2417082.0017081.4834164.0025622.7259786.0042704-.0811388.5935943-.3365124 1.2239146-.8856939 1.5262634-.4654804.295516-1.0377224.3185765-1.5698221.2613523-.6892526-.110178-1.2683274-.6328826-1.5032028-1.2819929-.2664769-.6081139-.1955872-1.2811388-.20242-1.9259786.0076869-.7046264.2664769-1.4425623.8216371-1.90121z"/><path d="m68.7057651 28.6659075c.6585054-.211815 1.4288968-.1127402 1.9797865.3177224.7242705.5739502.923274 1.5638434.8711744 2.4427046.0384341.7592883-.1460498 1.5681139-.6696086 2.14121-.859217.8899644-2.538363.766121-3.203701-.2980783-.5022064-.7404982-.5013523-1.6808541-.4372954-2.538363.073452-.8780071.5841993-1.7824911 1.4596441-2.0651957zm.332242.5671174c-.4347331.1076157-.7772242.4629182-.9215658.8805694-.1887545.4415658-.1733808.9283986-.1682562 1.3990036-.0213524.5286832.0811387 1.0846975.3980071 1.5194306.4902491.6866904 1.6842704.6798576 2.1437722-.0375801.3279715-.4782918.3672598-1.0812811.3518861-1.643274.017936-.5619929-.0333096-1.1666904-.3732384-1.6364413-.304911-.452669-.9181495-.6175089-1.430605-.4817082z"/><path d="m72.6158007 28.6300356c.2408541-.0017082.4825623-.0017082.7242705 0 .9027758 1.4007117 1.809822 2.7997153 2.714306 4.1995729-.009395-1.4007117.0008541-2.8014234-.0059786-4.2021352.2382918.0017082.4774377.0017082.7174377.0025623 0 1.8158007-.0008541 3.6316014 0 5.4474021-.24.0008541-.4782918.0008541-.7174377.0008541-.904484-1.3725267-1.7773666-2.7672598-2.6929538-4.1320996-.0136654 1.3767971-.0025622 2.7544484-.0059786 4.1312455-.2451246.0008541-.4902491.0008541-.7345196 0 0-1.8158007-.0008541-3.6316014.0008541-5.4474021z"/><path d="m78.2664769 29.4140925c.6525267-1.0138078 2.2402847-1.126548 3.1353736-.3826334.3467616.3032028.5201424.756726.590178 1.2017082-.2382918.0017081-.4774378.0017081-.7148755.0017081-.0819929-.2758718-.1614235-.5756583-.3928825-.766975-.3365125-.3194306-.8412812-.3433452-1.273452-.2622064-.4449822.1024911-.7806406.4748754-.9104626.9019217-.1981495.563701-.1349466 1.1675444-.138363 1.7534519.0418505.6661922.369822 1.4126691 1.0539502 1.6279004.5517437.1554448 1.21879.0871174 1.6612099-.304057.0008541-.4039857-.0008541-.8071174.0017082-1.2111032-.4167971.0017082-.8335943.0008541-1.2503914.0008541-.0008541-.2041281-.0008541-.4082562.000854-.6123843h1.9627047c.0008541.6721708.0017082 1.3451957 0 2.0173665-.4270463.5807829-1.1846264.7925979-1.8764413.7695374-.6687545.0384342-1.3537367-.2570819-1.7585765-.7943061-.4159431-.5466192-.5517438-1.2529537-.5338079-1.9268327-.0145195-.6901068.0478292-1.4263345.4432741-2.0139502z"/><path d="m84.470605 28.6291815h4.1833452c0 .2041281 0 .4082562.0008541.6123843-.5756584.0008541-1.1513168-.0008541-1.726121.0008541.0017082 1.6116726 0 3.2233452.0008541 4.8350178-.2451246.0008541-.4902491.0008541-.7345196 0 .0008541-1.6116726-.0017082-3.2233452.0008541-4.8350178-.5756584-.0017082-1.1504626 0-1.726121-.0008541-.0008541-.2041281-.0008541-.4082562.0008541-.6123843z"/><path d="m89.4414235 28.6300356c.2434164-.0008541.4876868-.0008541.7328114 0 .0008541.7797865.0017082 1.560427 0 2.3410676.9010676.0017082 1.8021352 0 2.7040569.0008541-.0059786-.7814947.0017082-1.5621352-.0042704-2.3436299.2382918.0008541.4774377.0008541.7165836.0017082.0017082 1.8158007 0 3.6316014.0008541 5.4474021-.2391459.0008541-.4774377.0008541-.7157296 0 .0008541-.8378647 0-1.6748754.0008541-2.5127402-.9010676.0008541-1.8012811 0-2.7014946.0008541v2.5118861c-.2451246.0008541-.4902491.0008541-.7345196 0 .0008541-1.8158007-.0008541-3.6316014.0008541-5.4474021z"/><path d="m105.32669 28.6300356c.240854-.0017082.482563-.0017082.725125 0 .90363 1.4007117 1.809822 2.7997153 2.714306 4.1995729-.009395-1.4007117 0-2.8014234-.005125-4.2021352.237438.0017082.476584.0017082.71573.0025623.000854 1.8158007 0 3.6316014.000854 5.4474021-.24.0008541-.479146.0008541-.717438.0008541-.904484-1.384484-1.798719-2.7758007-2.70064-4.1619929.00427 1.3870463 0 2.7740926.001708 4.1611388-.245979.0008541-.490249.0008541-.73452 0 0-1.8158007-.000854-3.6316014 0-5.4474021z"/><path d="m111.028612 29.4679004c.619217-1.0437011 2.200997-1.1863346 3.122562-.4774378.375801.3023488.56541.7772242.638007 1.2435588-.239145.000854-.477437.000854-.714021.000854-.082847-.2750177-.162277-.5748042-.392028-.766121-.339075-.3211387-.84726-.3441992-1.281139-.2613523-.444128.1041993-.778078.4782919-.906192.9053381-.195587.5619929-.134093 1.1641281-.135801 1.7474733.040996.6661922.368114 1.4126691 1.052242 1.6287545.551744.1562989 1.21879.0862633 1.66121-.3032029.001708-.4039857 0-.8079715.002562-1.2119573-.416797.0017082-.833594.0008541-1.250391.0008541-.001708-.2041281-.000854-.4082562.000854-.6123843h1.962704c.000855.6730249.001709 1.3460498-.000854 2.0190747-.4279.5799288-1.186334.7917438-1.879003.7678292-.666192.0375801-1.347758-.2562278-1.752598-.7908897-.417651-.544911-.554306-1.2520996-.53637-1.9259786-.01452-.6713168.042704-1.3819217.408256-1.9644128z"/><path d="m57.156726 34.6197865c.276726-.1255516.6456939.0760142.5961566.4014235.0111032.3074733-.3544484.4569395-.6029894.3373665-.2963701-.1212811-.2938078-.627758.0068328-.73879z"/></g><g fill="#da282d" transform="translate(4.868327 5.039146)"><path d="m14.9363701.28868327c3.461637-.53807829 7.0804271-.00256227 10.2354448 1.52199289 3.377936 1.60740213 6.1972954 4.33708185 7.9311032 7.65096085-.3074733.11530249-.5824911.30149466-.8028469.54405699-5.3671175 5.3457651-10.7402135 10.6864056-16.107331 16.0330249-2.6878292-2.676726-5.3773665-5.3508897-8.06604981-8.0267616-.2972242-.276726-.55430605-.6192171-.94120996-.7763701-.60213523-.2698932-1.35800712-.1340925-1.82434164.3348043-.54149466.5397864-1.09067616 1.0727402-1.6227758 1.6210676-.57822064.6192171-.53124555 1.6817082.08626334 2.2573665 3.61024911 3.5957296 7.22476867 7.1871886 10.83587187 10.7820641.2741637.2724555.5372242.5799288.9079004.7225623.5833452.2288968 1.3041993.1118861 1.7500356-.3433452 5.8744484-5.8343061 11.7360854-11.6814235 17.612242-17.5140214.5218505 3.6708897-.1392171 7.5014947-1.9029182 10.7658363-1.633879 3.0687545-4.2081139 5.6233452-7.2896797 7.2316014-3.3061922 1.7491815-7.1820641 2.3863346-10.8743061 1.7953025-4.0859786-.6337366-7.91999996-2.7749466-10.59074729-5.9325267-2.113879-2.4691815-3.51373665-5.5413523-3.99288256-8.7570106-.51843417-3.4095374.00170818-6.968541 1.48355872-10.0834164.98476868-2.08825624 2.38718861-3.98263347 4.10562277-5.52597866 2.51786477-2.27615659 5.71131676-3.79302491 9.06704626-4.30120997zm2.9466192 3.85622776c-.6969395.29039146-.803701 1.22562278-.5602847 1.85679716.2528114.68241992 1.2452669.84811387 1.7406406.33907473.387758-.41594306.4091103-1.05736655.2579359-1.57665481-.1836299-.58078291-.8925267-.85494662-1.4382918-.61921708zm2.0617794-.0111032c.1229893.86434164.2229181 1.73209964.3305338 2.59814947.2169395.05466192.4364413.09822064.6559431.14007117.4372953-.76355872.8856939-1.52113879 1.3127402-2.29067616-.2237723-.04441281-.4466904-.08967971-.6704627-.13323843-.2716014.56711744-.5662633 1.12227758-.8353025 1.6911032-.0247686-.63032028-.0862633-1.25893238-.1264057-1.88754448-.2212099-.04782918-.4441281-.08199288-.6670462-.11786477zm-4.928968.29637011c-.4475445.25708185-.5517438.84042704-.4355872 1.30846975.0597865.45608541.3219929.94377224.7994306 1.06334519.5235587.10676157 1.098363-.09053381 1.4451246-.49793594-.0606406-.34590747-.1272598-.69096085-.1998577-1.03430605-.3330961.06320285-.6670462.12811388-1.0001423.193879.0213523.1375089.0435587.2750178.064911.41338079.1426335-.02220641.2852669-.04526691.4279004-.06576513.0247687.13921708.0418505.27928826.055516.42021352-.1904626.06491104-.3962989.17081851-.599573.09053381-.2092526-.09822064-.2963701-.32711744-.3484697-.5363701-.0606406-.26562278-.1178648-.55259787-.0196441-.81651246.1050533-.19900356.3305338-.23743772.535516-.23572954.1033452.08797153.1921708.19046264.2613523.30747331.193879-.02476868.3860498-.06320284.5748043-.1144484-.0888257-.20241992-.1887545-.41679715-.3851958-.5363701-.3553025-.20241993-.8259075-.14946619-1.1760854.04014235zm8.4264769.59871886c-.1153025.86007117-.2075445 1.72270462-.3305338 2.58192171.1981494.10078291.397153.19985765.5961566.29893238.6234875-.62519573 1.2333096-1.26234875 1.8499644-1.89352313-.2049822-.1033452-.4125267-.20241993-.6209253-.2972242-.4048399.47316726-.812242.94462633-1.2239146 1.41181495.1272598-.60896798.2254804-1.22476869.3441993-1.83544484-.1998577-.10078292-.3997153-.20498221-.6149466-.26647687zm-12.4287545.92839857c.3681139.75074733.7319573 1.50320285 1.1094662 2.24882563.5141637-.25451958 1.033452-.49793595 1.5467616-.75672598-.0700356-.14092527-.1392171-.28185054-.2092527-.4227758-.3382206.14946619-.6661922.32113879-.9992882.48341637-.0854093-.17252669-.1708185-.34419929-.2562278-.51672598.2809964-.14177936.562847-.28185054.8438434-.4227758-.0666192-.13494662-.1332384-.27074733-.1998576-.40569395-.2844128.14092526-.572242.2741637-.8575089.41423487-.0811388-.15117437-.1460498-.30918149-.2092527-.4680427.3348043-.1605694.6730249-.31345196 1.0027046-.48512456-.0725978-.14177936-.1443416-.28441281-.2152313-.42619217-.5227046.24427047-1.0266192.52697509-1.5561566.75758007zm-1.18291812.79345196c.31345192.40911032.61238432.82932384.92839862 1.23758007-.5372242-.25281139-1.08469755-.47914591-1.6270463-.71829181-.15971531.12298932-.32113879.24341637-.48341637.36213523.50049822.66619217.9933096 1.33921708 1.49466187 2.00540925.1597153-.12469751.3211388-.24683274.4859787-.3655516-.3014947-.41508897-.6055516-.82846975-.91985766-1.23330961.53722416.24 1.07957296.47145908 1.61679716.71231317l.4842705-.36384342c-.4911032-.66875445-.9941637-1.32896797-1.4878292-1.99601423-.165694.11701067-.33053383.23658363-.49195732.35957295zm16.31572952-.34846975c-.4928114.66790036-.996726 1.32640569-1.4895373 1.99345196.1597153.12725978.3219928.25195729.4868327.37323843.3057651-.41765124.6234875-.82676156.9283986-1.24612099-.0999289.57907473-.1375089 1.16669039-.24 1.74576512.1562989.1366548.3219929.26220641.4911032.38348754.5004982-.66790035 1.0027046-1.33494662 1.5014946-2.00370106-.1648398-.11701068-.3271174-.23658363-.4859786-.36042705-.3100356.40996441-.6260498.81651246-.9207118 1.23672598.0691815-.58505338.1494662-1.16925267.2203559-1.75516014-.1614235-.1264057-.3245551-.24939502-.4919573-.36725979zm-4.33879.21352313c-.2502491.05039146-.2733096.47231317-.0239146.54491103.2007117.15032029.5039146-.05893238.4723132-.29466192-.0401424-.20071174-.2622064-.2972242-.4483986-.25024911zm-7.6791459.08797153c-.1998577.02989324-.3715303.24256228-.267331.44071175.0973666.24427046.4552313.19729537.5748043-.00170819.1528825-.19558719-.0794306-.50135231-.3074733-.43900356zm-6.45779362 1.8747331c.5833452.59871886 1.17010676 1.19487544 1.77565837 1.77138786.13836298-.1400711.27672597-.2792882.41594306-.4185053-.59017794-.59188612-1.18035588-1.18291815-1.772242-1.77224199-.14007117.13921708-.28014235.27843416-.41935943.41935943zm-1.44854092 1.69195726c.64740213.526121 1.31017793 1.0325979 1.96697509 1.5467616.34163701-.4347331.68071174-.8720285 1.02491103-1.3041993-.1255516-.0973665-.25366548-.1913167-.38434164-.2818505-.21437722.2698932-.42106761.5466192-.64313167.812242-.526121-.4210676-1.05907473-.8335943-1.5886121-1.25039149-.1255516.15886121-.2511032.31772239-.37580071.47743769zm-.50049822.7328114c-.08967972.1819217-.18192171.3629893-.27843417.5423488.45352313.2357295.90790036.4723131 1.35459075.7217082-.58761566-.0093951-1.17437722.0452669-1.76199288.0529537-.09565837.1767972-.18960854.3544484-.28014235.5346619.73964413.3826335 1.46733096.7874733 2.21295374 1.1590036.09651245-.1785054.19046263-.3587189.2852669-.5380783-.45950178-.2391459-.91900356-.4782918-1.37679715-.7217082.59530249.0145196 1.1880427-.0486833 1.78334519-.0503915.09822064-.175943.18704627-.3578647.2750178-.5397864-.74049823-.3826335-1.4750178-.7763701-2.21380783-1.1607118zm-.81822064 2.8757296c-.74135232.1332384-1.08725979 1.1487544-.5953025 1.7124555.37153025.4082562.98049823.5833452 1.51857652.4919573.76014235-.1443417 1.08896797-1.2298933.52868327-1.7671175-.37836299-.3544484-.94120996-.5235587-1.45195729-.4372953z"/><path d="m35.6156584 3.92882562c25.0829893 0 50.1651245-.00085409 75.2472596 0 .915587.0008541 1.829466.30234876 2.56057.85494662 1.009537.74476869 1.642419 1.9550178 1.708185 3.20540925v19.20256231c-.065766 1.3785053-.833595 2.6989324-2.011388 3.4214946-.697794.4390036-1.523701.6593595-2.345338.6474022-25.1171534-.0025623-50.2343064.0008541-75.3514595-.0017082 1.5723844-2.0335943 2.8005694-4.3345196 3.5974378-6.7789324 1.1991459-3.6324555 1.4408541-7.5740925.7037722-11.3278292-.6474021-3.33266902-2.0634875-6.51330959-4.1090391-9.22334518zm36.2434163 1.14533808c.0051246.66106762.340783 1.36825623.9975801 1.59886121.655089.22462634 1.393879.21864769 2.0566548.02476868.6952313-.20156583 1.1222776-.91900355 1.0906762-1.62362989-.4048399-.00256228-.8088257-.00170818-1.2128114-.00085409-.0358719.23487544-.0802847.52782918-.3313879.62519573-.3356584.13323843-.7302491.13921708-1.0650534.00085409-.2468327-.1033452-.2835587-.39544484-.3202847-.62604982-.405694 0-.8105338-.00170819-1.2153737.00085409zm35.2800003.05209965c-.416797.57224199-.838719 1.14021352-1.251246 1.7141637.459502.00256227.919858.00170818 1.381068.00085409.628612-.57053381 1.253808-1.14533808 1.884128-1.71501779-.672171-.00170819-1.343488-.00341637-2.01395 0zm-53.4670465 1.11288256c.3288256.19473309.6576512.3886121.9873309.5824911.2109609-.46206406.7985765-.54747331 1.2264769-.35786477.5004982.20925267 1.0411388.43985765 1.5937367.29637011.563701-.09053381.9984341-.52782918 1.2017081-1.04455516-.3279715-.19131673-.6550889-.38434164-.9813523-.57992883-.2135231.44156584-.7686832.54832741-1.1931672.37153025-.5278292-.21266904-1.0940926-.46718861-1.6723132-.29978647-.5483274.09736654-.9591459.53124555-1.1624199 1.03174377zm1.0214946 1.05309608c-.6960854 3.62220641-1.3733808 7.24697511-2.0660498 10.86918151.618363-.0008541 1.2375801.0102491 1.8559431-.0034164.1622776-.6362989.2434163-1.3076156.3664057-1.9584341.8224911-.0008541 1.6449822-.0008541 2.4683274 0 .120427.6542348.2271886 1.311032.3544484 1.9644128.6824199-.0017082 1.3656939 0 2.0489679-.0008541-.6772953-3.6247687-1.3733807-7.246121-2.0566548-10.87003561-.9907473 0-1.9814946.00170818-2.9713879-.0008541zm31.8465481 1.09494662c-.4851246.75587189-.3980071 1.69024909-.4039858 2.54604979.0008541 1.5365125-.0008541 3.0730249.0008541 4.6086833.0034164.691815.1631317 1.4323132.664484 1.9404982.5799288.6132385 1.4664769.7994306 2.280427.7960143.8276157.0196441 1.7312456-.1281139 2.3564413-.7165837.5329538-.4885409.7336655-1.2324555.7430605-1.9345195.0128114-1.1666904.0017082-2.3325267.0051246-3.498363-.9480427-.0017082-1.8969395-.0008541-2.8449822-.0008541 0 .5150178-.0008541 1.0308897.0008541 1.5459075.3032028.000854.6072597.000854.9121708.000854-.0034164.6516726.0017082 1.3033452-.0025623 1.9558719-.0042705.2903915-.0281851.618363-.2468327.8361566-.2690392.249395-.664484.2895374-1.0129538.2476868-.2664768-.0324555-.5500356-.1520284-.6841281-.397153-.1597153-.2886833-.1229893-.6303203-.1306762-.9471886.0119573-1.9131672-.01879-3.8280427.0153737-5.74120995.0247687-1.05480427 1.8704626-1.12142349 2.0276157-.11103203.0640569.50220638.0196441 1.01124558.0341637 1.51601428.6431316.0017081 1.2871174.0017081 1.9319573 0-.0136655-.7251246.0640569-1.47587193-.1776513-2.17366553-.1913167-.57395018-.6328825-1.05480427-1.1854804-1.29907473-.7054804-.32199288-1.5023488-.33395018-2.261637-.27758007-.7832029.07345195-1.5954449.4108185-2.021637 1.10348754zm-40.8930961-1.04113879c.0008541 1.59373666 0 3.18747328 0 4.78120998-.2203559.0008541-.4407118.0008541-.6602135.0017082 0 .4577936-.0008541.9164413.0008541 1.3742348.2195017.0008541.4398576.0008541.6602135.0008541-.0017082 1.5621353 0 3.1251246-.0008541 4.6872598 1.153879 0 2.307758.0042705 3.4624911-.0017082.7797865-.01879 1.6287544-.2160854 2.1676868-.8224911.4851246-.5389323.6046975-1.2939501.6021353-1.9951601-.0008541-1.7637011.0017081-3.5274021-.0017082-5.2919573-.0034164-.673879-.1358007-1.393879-.6012812-1.90975089-.5389324-.60640569-1.3879003-.80370107-2.1685409-.8224911-1.153879-.00597865-2.307758-.00170819-3.4607829-.00170819zm17.8505338 0c.0008541 1.59373666 0 3.18747328 0 4.78120998-.2203559.0008541-.4407117.0008541-.6602135.0017082-.0008541.4577936-.0008541.9155872.0008541 1.3742348.2195017.0008541.4390035.0008541.6602135.0008541-.0008541 1.5655516-.0008541 3.1302491 0 4.6958008 1.0693238.000854 2.1395018.0068327 3.2096797-.0025623.7080427-.0025623 1.4562278-.0982207 2.0549466-.507331.4697509-.3177224.7686833-.840427.8822776-1.3887544.1135943-.5577225.0794306-1.1299644.0845552-1.6962278-.0008541-1.5074733.0017081-3.0149466-.0008541-4.5215658-.0042705-.67558722-.1366548-1.39644131-.6021353-1.91402138-.5372242-.60384342-1.3827758-.80199288-2.16-.82163701-1.1564412-.00597865-2.3128825-.00170819-3.4693238-.00170819zm8.9577224-.00085409c-.6909608 3.61708187-1.3716726 7.23672597-2.0617793 10.85466197.6260498.0034163 1.2512455.000854 1.8772953.0017081.1127402-.6550889.2357296-1.3076156.3441993-1.9627046.821637-.0042705 1.6441281-.0008541 2.4666192-.0008541.1178648.6542349.2271886 1.310178.3527402 1.9627046.68242.0008541 1.365694.0017082 2.0481139 0-.673879-3.6196441-1.3716726-7.2358718-2.049822-10.85466188-.9933096-.00170818-1.9857652 0-2.9773666-.00085409zm5.9743772.00085409c.0008541 3.61793598 0 7.23672598.0008541 10.85466188.6106762.0008541 1.2222064.0017082 1.8337367 0-.0008541-2.6092526.0042705-5.2185053-.0025623-7.8269039.8276157 2.6109609 1.6671886 5.2185054 2.5024911 7.8269039.6883986-.0025622 1.3785054.008541 2.067758-.0042704.0580783-.0973666.0119573-.2323132.0281851-.3424911-.0042705-3.5026335-.0017082-7.0052669-.0017082-10.50790038-.6072598-.00170818-1.2145196-.00085409-1.8209253 0 0 2.14035587.0008541 4.28156588 0 6.42192168-.6875445-2.1395017-1.3708185-4.28156581-2.0532384-6.42277577-.8515303 0-1.7030605-.00085409-2.5545908.00085409zm17.9504627 0c.0008541 3.61793598 0 7.23587188 0 10.85380788.6824199.0034163 1.3648398.0017081 2.0472598.000854.0068327-1.1128825-.0119573-2.2257651.0085409-3.3377936.1767971-.3382206.4091103-.6456939.5995729-.9779359.6499645 1.44 1.3041992 2.8774377 1.9584342 4.3157295.697794.0017082 1.396441.0017082 2.095943-.000854-.933523-2.0096798-1.879003-4.0142349-2.809964-6.0247687.940356-1.6074022 1.871316-3.21992886 2.807402-4.82903918-.68242-.00170818-1.363986-.00085409-2.044698 0-.871174 1.5664057-1.7577221 3.12427048-2.6186474 4.69665478.0076868-1.5655516.0017082-3.13110318.0034164-4.69750887-.68242 0-1.3648399-.00085409-2.0472598.00085409zm6.9429178.00170819c.790036 2.25309608 1.58605 4.50448399 2.377794 6.75758009.071744.2177936.184484.4330249.172527.6696085-.003417 1.1419217-.002563 2.2838434-.001709 3.4257651.68242.0008541 1.363986.0025623 2.046406-.000854.016228-1.2222065-.031601-2.4495374.023915-3.6691815.834448-2.3974378 1.685978-4.78889684 2.524697-7.18548047-.649964 0-1.299929-.00085409-1.949893.00085409-.508185 1.63985765-1.023203 3.27715298-1.531388 4.91701068-.503915-1.6415658-1.02064-3.27800712-1.533096-4.91701068-.709751-.00085409-1.419502-.00256228-2.129253.00170819zm-57.5436296 13.06505339c-.0008541.1990035-.0008541.3980071 0 .5978648h64.0569396c-.000854-.1998577-.000854-.3988613 0-.5978648zm6.5022064 1.7124555c-.3032028.3655516-.6439857.6986477-.942064 1.0684698.2066904.0017081.4142349.000854.6226334-.0034164.1725267-.2092527.3510321-.415089.5312456-.6192171.1870462.1964413.3544484.4108185.544911.6046975.1990036.0486833.4116726.0085409.6158007.0136655-.3151601-.3604271-.6345907-.7174377-.9557295-1.0718861-.1400712.0025622-.2792883.0051245-.4167972.0076868zm12.0418506 0c-.3023488.3664057-.6431317.6986477-.94121 1.0684698.2075445.0025622.415089.000854.6234876-.0034164.1725266-.2101068.351032-.415089.5303914-.6192171.1879004.2075445.3740925.4176512.5619929.6269039.1990036-.0025623.3988612-.0042704.5987189-.0076868-.3143061-.3612812-.6345908-.7174377-.9557296-1.0727402-.1400712.0025622-.2792882.0051245-.4176512.0076868zm35.0203558.9702491c-.0367259.2664769-.0324555.5696797-.2246263.7823488-.1127402.1392171-.2912455.1836299-.4518149.2374377-.7276869-.7225623-1.993452-.8045552-2.7911744-.1537367-.6166548.5022064-.8669039 1.3238435-.8728826 2.0959431-.0409964.8148043.0512456 1.7022064.5961566 2.3513167.8156584 1.0232029 2.6528114.9352313 3.3181495-.2118149.4876868-.7362278.4287544-1.6526691.4039857-2.4948043-.0324555-.3920285-.1494662-.7738078-.3288256-1.1222776.2502491-.0828469.5098933-.1921708.6679004-.4150889.2382918-.3014947.2835587-.6960855.3083274-1.0659075-.2092527-.0025623-.4176513-.0025623-.6251958-.0034164zm-4.7846263.1879004c-.0435587.286121-.027331.6132384-.2263345.8472598-.1409253.1716726-.3638434.2288968-.5713879.2647686 0-.268185.0008541-.5363701 0-.8045551-.2391459-.0008541-.4782918-.0008541-.7165836-.0017082.0017081 1.2162278.0076868 2.4333096-.0025623 3.6495374.0042704.4099644-.119573.8737366-.4928114 1.098363-.4313167.2451245-.9864769.249395-1.430605.0350177-.3715302-.193879-.5568683-.6243416-.5508897-1.0291815-.0068327-1.2503914 0-2.501637-.0025622-3.7528825h-.7140214c-.0017082 1.2179359-.0008541 2.436726-.0008541 3.655516-.0042705.378363.0640569.7686833.2775801 1.088968.3373665.5303914.9890391.7891815 1.6014235.7763701.5440569.0256228 1.1222775-.1246975 1.5160142-.5184342.3467616-.3160142.5192883-.7908897.516726-1.2546619 0-.8079715-.0008541-1.6159431 0-2.4230605.3330961-.0324555.6866904-.0965125.942064-.3313879.359573-.322847.4364413-.8387189.4279004-1.2982206-.1921708-.0008541-.3826335-.0008541-.5730961-.0017082zm-48.7618505.3074733c-.0017082 1.8158007 0 3.6316014-.0008541 5.4474021.6781494-.0008541 1.357153.0042705 2.0361566-.0017082.4834163-.0102491.9992882-.166548 1.3170106-.5508896.424484-.5338079.4629182-1.3725267.0264769-1.9114591-.1580071-.1998577-.3954448-.3108897-.6286121-.397153.3809253-.1605694.70121-.4936655.7746619-.9096086.0520997-.4287544-.0298932-.9053381-.3399288-1.2247687-.3237011-.3151601-.7891815-.4236299-1.227331-.4398576-.6525266-.0264769-1.3050533-.0068328-1.95758-.0119573zm6.0059786.0333096c-.8805694.2792882-1.3947331 1.1863345-1.468185 2.0669039-.0691815.8959431-.0606406 1.8901068.508185 2.6382918.7148755.9941637 2.3555872 1.0573666 3.1703915.1580071.4731672-.5491815.6602135-1.2973665.6320285-2.0113879.055516-.9061921-.1187189-1.93879-.8728826-2.5323843-.5483274-.4279004-1.3135943-.5269751-1.9695374-.3194306zm6.4304627.3553025c-.5551602.4586477-.8139502 1.1965836-.8216371 1.9012099.0068328.6448399-.0640569 1.3178648.20242 1.9259787.2348754.6491103.8139502 1.1718149 1.5032028 1.2819929.5320997.0572242 1.1043417.0341637 1.5698221-.2613523.5491815-.3023488.8045551-.9326691.8856939-1.5262634-.2425622-.0017082-.4842704-.0025623-.7259786-.0042704-.073452.333096-.138363.7037722-.4099644.9395017-.3177224.2690392-.7703915.3313879-1.1701068.2664769-.4202135-.0657651-.7609964-.3886121-.9266904-.7695374-.2639146-.581637-.2152313-1.2341637-.2101067-1.8550889.0264768-.4987901.1486121-1.0317438.5116014-1.3981495.4688968-.4390036 1.2708897-.4842705 1.7773665-.0845552.267331.2434164.3604271.6123844.4253381.9557296.2408541-.0025623.4817082-.0025623.7234164-.0008541-.0606406-.6525267-.3903203-1.3246975-1.0052669-1.6142349-.7362278-.351032-1.6928114-.2878292-2.3291103.2434164zm5.603701-.3527402c-.8754448.2827046-1.3861921 1.1871886-1.4596441 2.0651957-.0640569.8575089-.064911 1.7978648.4372954 2.538363.665338 1.0641993 2.344484 1.1880427 3.203701.2980783.5235588-.5730961.7080427-1.3819217.6696086-2.14121.0520996-.8788612-.1469039-1.8687544-.8711744-2.4427046-.5508897-.4304626-1.3212811-.5295374-1.9797865-.3177224zm3.9100356-.0358719c-.0017082 1.8158007-.0008541 3.6316014-.0008541 5.4474021.2442705.0008541.489395.0008541.7345196 0 .0034164-1.3767971-.0076868-2.7544484.0059786-4.1312455.9155872 1.3648398 1.7884698 2.7595729 2.6929538 4.1320996.2391459 0 .4774377 0 .7174377-.0008541-.0008541-1.8158007 0-3.6316014 0-5.4474021-.24-.0008541-.4791459-.0008541-.7174377-.0025623.0068327 1.4007117-.0034164 2.8014235.0059786 4.2021352-.904484-1.3998576-1.8115302-2.7988612-2.714306-4.1995729-.2417082-.0017082-.4834164-.0017082-.7242705 0zm5.6506762.7840569c-.3954449.5876157-.4577936 1.3238434-.4432741 2.0139502-.0179359.673879.1178648 1.3802135.5338079 1.9268327.4048398.5372242 1.089822.8327403 1.7585765.7943061.6918149.0230605 1.449395-.1887545 1.8764413-.7695374.0017082-.6721708.0008541-1.3451957 0-2.0173665h-1.9627047c-.0017081.2041281-.0017081.4082562-.0008541.6123843.4167972 0 .8335944.0008541 1.2503915-.0008541-.0025623.4039858-.0008541.8071175-.0017082 1.2111032-.4424199.3911744-1.1094662.4595018-1.6612099.304057-.6841282-.2152314-1.0120997-.9617082-1.0539502-1.6279004.0034164-.5859075-.0597865-1.1897509.138363-1.7534519.129822-.4270463.4654804-.7994307.9104626-.9019218.4321708-.0811387.9369395-.0572242 1.273452.2622064.231459.1913168.3108896.4911033.3928825.7669751.2374377 0 .4765837 0 .7148755-.0017081-.0700356-.4449823-.2434164-.8985054-.590178-1.2017082-.8950889-.7439146-2.4828469-.6311744-3.1353736.3826334zm6.2041281-.784911c-.0017082.2041281-.0017082.4082562-.0008541.6123843.5756584.0008541 1.1504626-.0008541 1.726121.0008541-.0025623 1.6116726 0 3.2233452-.0008541 4.8350178.2442705.0008541.489395.0008541.7345196 0-.0008541-1.6116726.0008541-3.2233452-.0008541-4.8350178.5748042-.0017082 1.1504626 0 1.726121-.0008541-.0008541-.2041281-.0008541-.4082562-.0008541-.6123843zm4.9708185.0008541c-.0017082 1.8158007 0 3.6316014-.0008541 5.4474021.2442705.0008541.489395.0008541.7345196 0v-2.5118861c.9002135-.0008541 1.800427 0 2.7014946-.0008541-.0008541.8378648 0 1.6748754-.0008541 2.5127402.2382919.0008541.4765837.0008541.7157296 0-.0008541-1.8158007.0008541-3.6316014-.0008541-5.4474021-.2391459-.0008541-.4782918-.0008541-.7165836-.0017082.0059786.7814947-.0017082 1.5621352.0042704 2.3436299-.9019217-.0008541-1.8029893.0008541-2.7040569-.0008541.0017082-.7806406.0008541-1.5612811 0-2.3410676-.2451246-.0008541-.489395-.0008541-.7328114 0zm15.8852669 0c-.000854 1.8158007 0 3.6316014 0 5.4474021.24427.0008541.488541.0008541.73452 0-.001709-1.3870462.002562-2.7740925-.001709-4.1611388.901922 1.3861922 1.796157 2.7775089 2.700641 4.1619929.238292 0 .477438 0 .717438-.0008541-.000854-1.8158007 0-3.6316014-.000854-5.4474021-.239146-.0008541-.478292-.0008541-.71573-.0025623.005125 1.4007117-.00427 2.8014235.005125 4.2021352-.904484-1.3998576-1.810677-2.7988612-2.714306-4.1995729-.242563-.0017082-.484271-.0017082-.725125 0zm5.701922.8378647c-.365552.5824912-.422776 1.2930961-.408257 1.9644129-.017935.673879.118719 1.3810676.536371 1.9259786.404839.5346619 1.086405.8284698 1.752597.7908897.692669.0239146 1.451104-.1879004 1.879004-.7678292.002562-.6730249.001708-1.3460498.000854-2.0190747h-1.962705c-.001708.2041281-.002562.4082562-.000854.6123843.416798 0 .833595.0008541 1.250392-.0008541-.002562.4039858-.000854.8079716-.002562 1.2119573-.44242.3894662-1.109467.4595018-1.66121.3032029-.684129-.2160854-1.011246-.9625623-1.052242-1.6287545.001708-.5833452-.059787-1.1854804.1358-1.7474733.128114-.4270463.462064-.8011388.906192-.9053381.433879-.0828469.942065-.0597864 1.281139.2613523.229751.1913168.309182.4911032.392029.766121.236583 0 .474875 0 .714021-.0008541-.072598-.4663345-.262206-.9412099-.638007-1.2435587-.921566-.7088968-2.503345-.5662633-3.122562.4774377zm-53.8718864 5.1518862c-.3006406.111032-.3032029.6175089-.0068328.73879.248541.119573.6140926-.0298932.6029894-.3373665.0495373-.3254093-.3194306-.5269751-.5961566-.4014235z"/><path d="m18.1503203 4.57793594c.2066904-.07430605.4654804.00256228.5474733.21950178.1375089.33992883.1195729.73451958-.0008541 1.07701068-.0837011.27501779-.4603559.38519573-.6704626.1827758-.2109609-.22804271-.2041281-.56626335-.1913168-.85580071.027331-.2288968.0700356-.52697509.3151602-.62348755z"/><path d="m47.6933808 8.8919573c.5141637.02049822 1.0385765-.05295374 1.5459075.05722419.3920284.09309609.6081138.49708186.5901779.87971531.0042705 1.9609964.0051245 3.9219929 0 5.8821352.0119573.3621353-.1733808.7507474-.5397865.8600712-.5192882.1434875-1.0650534.0632028-1.5954448.082847 0-1.0496797.0017082-2.1002135-.0008541-3.1498933.4133808-.0008541.8276156.0008541 1.2418505-.0008541.0008541-.4586476 0-.9164412.0008541-1.3750889-.4142349-.0008541-.8284697.0008541-1.2418505-.0008541 0-1.0787189.0017082-2.15658364-.0008541-3.2353025z"/><path d="m65.5439146 8.8919573c.5124555.02049822 1.0351601-.05209965 1.541637.0563701.3928826.09053381.6115303.49366548.5944484.87715303.0051246 1.96099647.0051246 3.92284697 0 5.88469747.0119573.3604271-.1708185.7490392-.535516.8592171-.5201424.1469039-1.0676157.064911-1.5997153.0845552 0-1.0496797.0008541-2.1002135-.0008541-3.1498933.4133808-.0008541.8276156.0008541 1.2418505-.0008541.0008541-.4586476 0-.9164412.0008541-1.3750889-.4142349-.0008541-.8284697.0008541-1.2418505-.0008541 0-1.0787189.0008541-2.15658364-.0008541-3.2353025z"/><path d="m55.1154448 14.6408541c.3151602-1.8115303.6491104-3.6204982.9608541-5.43202848.3117438 1.81153028.6465481 3.62049818.9608541 5.43202848-.6405694-.0042705-1.2811388-.0034164-1.9217082 0z"/><path d="m72.8814235 14.6903915c.3134519-1.8132385.6474021-3.6222064.9608541-5.43544488.3134519 1.81323848.6456939 3.62306048.9642704 5.43544488z"/><path d="m4.82562278 14.4913879c.39715302-.0785765.83871886.0316014 1.16156583.2750178.286121.1896085.16142349.6977936-.18021352.7302491-.36213523.0444128-.74049822-.0794306-1.04882562-.2647687-.28185054-.1648398-.22975089-.6243416.06747331-.7404982z"/><path d="m46.5301068 24.203274c.5397864.027331 1.1017793-.0751601 1.6270462.0879716.6243417.2246263.6004271 1.2392882.0111032 1.4980782-.5107473.2357296-1.0949466.082847-1.6372953.1255516-.0008541-.5705338.000854-1.1410676-.0008541-1.7116014z"/><path d="m52.1209964 24.1955872c.5150178-.1392171 1.1342349.0264769 1.44.4834164.3356584.4671886.387758 1.0676156.3698221 1.625338.0153737.5637011-.0222064 1.1701068-.351032 1.6501068-.4595018.7174377-1.651815.7259786-2.1429182.0401423-.3185765-.4355871-.4202135-.9924555-.3997153-1.5219928-.0051245-.470605-.0204982-.9565837.1682563-1.3981495.1443416-.415089.4825622-.7695374.9155871-.8788612z"/><path d="m64.1696797 24.193879c.5124555-.1358007 1.125694.0290391 1.430605.4817082.3399288.4697509.3911744 1.0744484.3732384 1.6364413.0153737.5619929-.0239146 1.1649822-.3518861 1.643274-.4595018.7174377-1.6535231.7242705-2.1437722.0375801-.3168684-.4347331-.4193595-.9907474-.3980071-1.5194306-.0051246-.470605-.0204983-.9574378.1682562-1.3990036.1443416-.4176512.4868327-.7729537.9215658-.8805694z"/><path d="m96.7165836 24.2246263c.5278292-.1836299 1.1974378-.0384341 1.5254093.4372954.3672598.4962278.3911744 1.1402135.3749466 1.7329537.01879.5594306-.0427046 1.1632741-.3937367 1.6219218-.5039145.6824199-1.6979359.6354448-2.1412099-.0896798-.4210676-.6260498-.3681139-1.4101067-.3493239-2.1275444.046121-.6354449.3279716-1.356299.9839146-1.5749467z"/><path d="m46.5301068 26.5093238c.4637722.0042705.9283985-.0128113 1.3921708.0076869.3646975.0162277.7370818.2707473.7968683.646548.1170107.4364413-.0264769.9916014-.4774377 1.1735232-.544057.212669-1.1427758.0879715-1.7107473.1212811-.0008541-.6499644.000854-1.2990747-.0008541-1.9490392z"/></g></g></svg>